{"title":"Cannibal(2006) dir.Marian Dora.avi","uid":7417778,"size":510012502,"categoryP":"video","categoryS":"movies","magnet":"?xt=urn:btih:e862cee4db6cb7e0015aa5fc22c607c1a53f9d56&amp;dn=Cannibal%282006%29+dir.Marian+Dora.avi&amp;tr=udp%3A%2F%2Ftracker.openbittorrent.com%3A80&amp;tr=udp%3A%2F%2Fopen.demonii.com%3A1337&amp;tr=udp%3A%2F%2Ftracker.coppersurfer.tk%3A6969&amp;tr=udp%3A%2F%2Fexodus.desync.com%3A6969","seeders":0,"leechers":1,"uploader":"panzerfaust698","files":1,"time":1341533640,"description":" &lt;a href=&quot;http://www.imdb.com/title/tt0910548&quot; rel=&quot;nofollow&quot; target=&quot;_NEW&quot;&gt;http://www.imdb.com/title/tt0910548&lt;/a&gt;\n\n\n\nit's too hard find this on web...no subs \n\n\n\n\n\nFILE INFO:\n\n\nFormat                                   : AVI\nFormat/Info                              : Audio Video Interleave\nFile size                                : 486 MiB\nDuration                                 : 1h 29mn\nOverall bit rate mode                    : Variable\nOverall bit rate                         : 764 Kbps\nWriting application                      : MEncoder 2:1.0~rc2-0ubuntu19+medibuntu1\nWriting library                          : MPlayer\n\nVideo\nID                                       : 0\nFormat                                   : MPEG-4 Visual\nFormat profile                           : Advanced Simple@L5\nFormat settings, BVOP                    : 2\nFormat settings, QPel                    : No\nFormat settings, GMC                     : No warppoints\nFormat settings, Matrix                  : Default (H.263)\nCodec ID                                 : XVID\nCodec ID/Hint                            : XviD\nDuration                                 : 1h 29mn\nBit rate                                 : 663 Kbps\nWidth                                    : 708 pixels\nHeight                                   : 474 pixels\nDisplay aspect ratio                     : 3:2\nFrame rate                               : 29.970 fps\nColor space                              : YUV\nChroma subsampling                       : 4:2:0\nBit depth                                : 8 bits\nScan type                                : Progressive\nCompression mode                         : Lossy\nBits/(Pixel*Frame)                       : 0.066\nStream size                              : 423 MiB (87%)\nWriting library                          : XviD 1.2.1 (UTC 2008-12-04)\n\nAudio\nID                                       : 1\nFormat                                   : MPEG Audio\nFormat version                           : Version 1\nFormat profile                           : Layer 3\nMode                                     : Joint stereo\nMode extension                           : MS Stereo\nCodec ID                                 : 55\nCodec ID/Hint                            : MP3\nDuration                                 : 1h 29mn\nBit rate mode                            : Variable\nBit rate                                 : 86.3 Kbps\nChannel(s)                               : 2 channels\nSampling rate                            : 48.0 KHz\nCompression mode                         : Lossy\nStream size                              : 54.9 MiB (11%)\nAlignment                                : Aligned on interleaves\nInterleave, duration                     : 24 ms (0.72 video frame)\nInterleave, preload duration             : 476 ms\n","torrent":{"xt":"urn:btih:e862cee4db6cb7e0015aa5fc22c607c1a53f9d56","amp;dn":"Cannibal%282006%29+dir.Marian+Dora.avi","amp;tr":["udp%3A%2F%2Ftracker.openbittorrent.com%3A80","udp%3A%2F%2Fopen.demonii.com%3A1337","udp%3A%2F%2Ftracker.coppersurfer.tk%3A6969","udp%3A%2F%2Fexodus.desync.com%3A6969"],"infoHash":"e862cee4db6cb7e0015aa5fc22c607c1a53f9d56","infoHashBuffer":{"type":"Buffer","data":[232,98,206,228,219,108,183,224,1,90,165,252,34,198,7,193,165,63,157,86]},"announce":[],"urlList":[]}}